<?xml version="1.0" encoding="UTF-8"?>
<svg version="1.1" xmlns="http://www.w3.org/2000/svg" width="1024" height="1024">
<path d="M0 0 C337.92 0 675.84 0 1024 0 C1024 337.92 1024 675.84 1024 1024 C686.08 1024 348.16 1024 0 1024 C0 686.08 0 348.16 0 0 Z " fill="#FAFAFA" transform="translate(0,0)"/>
<path d="M0 0 C8.01802361 3.63080314 12.59863708 12.04063512 15.8984375 19.875 C25.86926062 48.16102303 20.34927687 81.83898339 7.9765625 108.50390625 C6.089767 112.39474294 4.05910999 116.19790894 2 120 C1.54367187 120.89976562 1.08734375 121.79953125 0.6171875 122.7265625 C-5.86131557 135.2568409 -14.21520974 146.86214531 -22.0625 158.5625 C-46.77379525 194.88249551 -46.77379525 194.88249551 -64 235 C-64.56847656 236.86205078 -64.56847656 236.86205078 -65.1484375 238.76171875 C-67.39339959 246.38026032 -69.1245129 253.41565067 -69.1328125 261.39453125 C-69.13410156 262.59787109 -69.13539063 263.80121094 -69.13671875 265.04101562 C-69.13091797 266.90790039 -69.13091797 266.90790039 -69.125 268.8125 C-69.12886719 270.04548828 -69.13273437 271.27847656 -69.13671875 272.54882812 C-69.12970395 279.11818541 -68.8868358 285.48949912 -68 292 C-67.34 292 -66.68 292 -66 292 C-65.731875 292.8971875 -65.46375 293.794375 -65.1875 294.71875 C-57.74188879 318.4271436 -43.81149059 339.62592648 -26 357 C-26.33 357.66 -26.66 358.32 -27 359 C-64.22748411 337.81729112 -96.50296875 309.49909526 -109 267 C-109.94478556 263.01799556 -110.70309332 259.01289556 -111.421875 254.984375 C-111.84429908 252.08727872 -111.84429908 252.08727872 -113 250 C-113.9218323 233.52992949 -114.28781226 216.00807593 -110 200 C-109.79020508 199.21254395 -109.58041016 198.42508789 -109.36425781 197.61376953 C-100.95643682 167.400728 -83.07616007 141.14270854 -66.00469971 115.23513794 C-56.15060338 100.27395872 -47.33201121 85.3639021 -40 69 C-40.30550781 69.49886719 -40.61101562 69.99773437 -40.92578125 70.51171875 C-45.63681886 77.90340311 -51.24263499 84.41897763 -57 91 C-57.77859375 91.89203125 -58.5571875 92.7840625 -59.359375 93.703125 C-61.54276285 96.16524321 -63.75900793 98.59024671 -66 101 C-67.15048828 102.24910156 -67.15048828 102.24910156 -68.32421875 103.5234375 C-74.53331347 110.02248994 -83.7226887 119.54341731 -93 121 C-96.07071106 115.89575953 -96.54624966 111.85717304 -96.5 106.0625 C-96.49427979 105.22638184 -96.48855957 104.39026367 -96.48266602 103.52880859 C-95.63878366 73.68890109 -70.44234746 48.46651059 -50 29 C-47.40711717 26.56637293 -44.74062252 24.26558128 -42 22 C-41.43410156 21.525625 -40.86820313 21.05125 -40.28515625 20.5625 C-32.20205718 13.79676718 -24.19272708 7.22314039 -15 2 C-14.35289062 1.61972656 -13.70578125 1.23945313 -13.0390625 0.84765625 C-8.88506276 -0.87919805 -4.39900292 -0.49945011 0 0 Z " fill="#377D2E" transform="translate(554,286)"/>
<path d="M0 0 C0.0930721 13.80506145 0.16395298 27.61004706 0.20724869 41.4153595 C0.22803846 47.82715006 0.25619767 54.23872444 0.30175781 60.65039062 C0.34552394 66.84905087 0.3692017 73.04750442 0.37950897 79.24630737 C0.38684544 81.59995777 0.40117024 83.95359809 0.42292023 86.30715942 C0.63618012 110.36149936 -3.27517968 129.09909209 -18.921875 147.92578125 C-21 150 -21 150 -23.203125 151.04296875 C-24.09257813 151.51669922 -24.09257813 151.51669922 -25 152 C-25.35689937 153.32721955 -25.68739395 154.66165537 -26 156 C-27.8125 158.140625 -27.8125 158.140625 -30 160.25 C-30.721875 160.95640625 -31.44375 161.6628125 -32.1875 162.390625 C-34 164 -34 164 -35 164 C-35.33 132.98 -35.66 101.96 -36 70 C-51.00802058 88.76002573 -59.23846249 107.00664428 -61 131 C-61.66 131 -62.32 131 -63 131 C-71.70533772 115.0918897 -76.01276139 98.68318151 -71.75 80.625 C-71.19371537 78.74179789 -70.61138152 76.86604272 -70 75 C-69.74476563 74.13632812 -69.48953125 73.27265625 -69.2265625 72.3828125 C-65.13066903 59.71936205 -57.80135047 47.90351595 -49 38 C-48.15566406 37.03578125 -47.31132813 36.0715625 -46.44140625 35.078125 C-15.29565597 0 -15.29565597 0 0 0 Z " fill="#59A439" transform="translate(574,465)"/>
<path d="M0 0 C4.95 0 9.9 0 15 0 C18.15416875 7.60126253 20.78558368 15.27537766 23.25 23.125 C23.61351562 24.27226563 23.97703125 25.41953125 24.3515625 26.6015625 C25.23773425 29.39999961 26.12047318 32.19946882 27 35 C29.19404617 31.70893074 30.35282713 28.4185882 31.6015625 24.70703125 C31.9635524 23.64798836 31.9635524 23.64798836 32.33285522 22.56755066 C33.10098852 20.3172348 33.86306352 18.06492066 34.625 15.8125 C35.145435 14.28436949 35.66626375 12.75637302 36.1875 11.22851562 C37.46364971 7.48744619 38.73158455 3.74373456 40 0 C45.28 0 50.56 0 56 0 C56 18.48 56 36.96 56 56 C52.04 56 48.08 56 44 56 C44 43.13 44 30.26 44 17 C40.42165409 27.81422667 40.42165409 27.81422667 36.84985352 38.63061523 C36.40144252 39.98168712 35.95280884 41.33268512 35.50390625 42.68359375 C35.27151245 43.39100708 35.03911865 44.09842041 34.79968262 44.82727051 C33.1140718 49.8859282 33.1140718 49.8859282 32 51 C30.31391034 51.07205511 28.62499341 51.08386068 26.9375 51.0625 C26.01839844 51.05347656 25.09929687 51.04445313 24.15234375 51.03515625 C23.44207031 51.02355469 22.73179687 51.01195312 22 51 C20.72147968 47.56531175 19.4536625 44.12676101 18.1875 40.6875 C17.83107422 39.73037109 17.47464844 38.77324219 17.10742188 37.78710938 C16.75615234 36.82998047 16.40488281 35.87285156 16.04296875 34.88671875 C15.72352295 34.02264404 15.40407715 33.15856934 15.07495117 32.26831055 C13.5295597 27.56966063 12.30144864 22.77197834 11 18 C11 30.54 11 43.08 11 56 C7.37 56 3.74 56 0 56 C0 37.52 0 19.04 0 0 Z " fill="#134927" transform="translate(213,701)"/>
<path d="M0 0 C5.28 0 10.56 0 16 0 C17.57219056 4.62469042 19.14061244 9.25032024 20.69970703 13.87939453 C21.23106589 15.45337089 21.76457777 17.02662212 22.30029297 18.59912109 C23.07047236 20.86107653 23.83284106 23.1255368 24.59375 25.390625 C24.83436157 26.09181458 25.07497314 26.79300415 25.32287598 27.51544189 C26.45156267 30.89995358 27 33.38533252 27 37 C27.66 37 28.32 37 29 37 C29.3403125 35.2365625 29.3403125 35.2365625 29.6875 33.4375 C32.22423078 21.98597246 36.65477522 10.86306196 41 0 C45.95 0 50.9 0 56 0 C56 18.48 56 36.96 56 56 C52.37 56 48.74 56 45 56 C45 42.8 45 29.6 45 16 C41.42165409 26.81422667 41.42165409 26.81422667 37.84985352 37.63061523 C37.40144252 38.98168712 36.95280884 40.33268512 36.50390625 41.68359375 C36.27151245 42.39100708 36.03911865 43.09842041 35.79968262 43.82727051 C34.1140718 48.8859282 34.1140718 48.8859282 33 50 C31.31391034 50.07205511 29.62499341 50.08386068 27.9375 50.0625 C27.01839844 50.05347656 26.09929688 50.04445313 25.15234375 50.03515625 C24.44207031 50.02355469 23.73179687 50.01195312 23 50 C19.56294609 42.84949383 17.10758275 35.50199259 14.75 27.9375 C13.5125 23.998125 12.275 20.05875 11 16 C11 29.2 11 42.4 11 56 C7.37 56 3.74 56 0 56 C0 37.52 0 19.04 0 0 Z " fill="#104724" transform="translate(629,701)"/>
<path d="M0 0 C9 0 9 0 11.0625 2 C11.371875 2.66 11.68125 3.32 12 4 C13.03640625 3.02353516 13.03640625 3.02353516 14.09375 2.02734375 C17.54992749 -0.38361877 19.33375586 -0.51050661 23.5 -0.4375 C25.15515625 -0.43556641 25.15515625 -0.43556641 26.84375 -0.43359375 C30.29000473 0.03983976 32.09227695 1.17298068 35 3 C38.89992908 3.35199239 38.89992908 3.35199239 41.375 1.5234375 C44.4890161 -0.28380399 46.42535619 -0.40235697 50 -0.375 C51.010625 -0.38273438 52.02125 -0.39046875 53.0625 -0.3984375 C57.18448935 0.16066212 59.67761779 1.70600702 62.6262207 4.59130859 C64.60622705 8.06291737 64.37139479 11.38171255 64.29296875 15.265625 C64.28872391 16.05902283 64.28447906 16.85242065 64.28010559 17.66986084 C64.2633504 20.1969232 64.22570506 22.72317983 64.1875 25.25 C64.17244903 26.96613429 64.15876134 28.68228112 64.14648438 30.3984375 C64.11345735 34.59926746 64.06169765 38.79949725 64 43 C60.04 43 56.08 43 52 43 C51.97494385 42.06615479 51.9498877 41.13230957 51.92407227 40.17016602 C51.82913072 36.71674811 51.72988742 33.2635104 51.62768555 29.81030273 C51.58428187 28.31360731 51.54261087 26.81686061 51.50268555 25.32006836 C51.44511384 23.17285688 51.38138284 21.02590479 51.31640625 18.87890625 C51.26141968 16.93866577 51.26141968 16.93866577 51.20532227 14.95922852 C51.3332722 12.11444992 51.3332722 12.11444992 50 11 C45.96916989 10.67539739 45.96916989 10.67539739 42 11 C39.61051803 14.58422296 39.69766832 16.37232596 39.5859375 20.63671875 C39.54726563 21.93544922 39.50859375 23.23417969 39.46875 24.57226562 C39.43729483 25.94400573 39.40604749 27.31575061 39.375 28.6875 C39.33680803 30.07098785 39.29775558 31.45445223 39.2578125 32.83789062 C39.16339733 36.22503472 39.08060428 39.61249911 39 43 C34.71 43 30.42 43 26 43 C25.98541748 42.0713916 25.97083496 41.1427832 25.95581055 40.18603516 C25.89480828 36.74533504 25.8206695 33.30544348 25.73754883 29.86523438 C25.70426537 28.37543428 25.67624403 26.88550705 25.65356445 25.39550781 C25.62007929 23.25530748 25.56777211 21.11627581 25.51171875 18.9765625 C25.48553467 17.68830566 25.45935059 16.40004883 25.43237305 15.07275391 C25.28968994 14.05874512 25.14700684 13.04473633 25 12 C22.17431454 9.67961905 22.17431454 9.67961905 18.9375 10.1875 C15.70259047 10.73754498 15.70259047 10.73754498 14 14 C13.6303565 17.10208984 13.6303565 17.10208984 13.5859375 20.63671875 C13.52792969 22.58481445 13.52792969 22.58481445 13.46875 24.57226562 C13.43729483 25.94400573 13.40604749 27.31575061 13.375 28.6875 C13.33680803 30.07098785 13.29775558 31.45445223 13.2578125 32.83789062 C13.16339733 36.22503472 13.08060428 39.61249911 13 43 C8.71 43 4.42 43 0 43 C0 28.81 0 14.62 0 0 Z " fill="#144B28" transform="translate(552,714)"/>
<path d="M0 0 C4.21410174 2.99619645 6.56362726 6.64791303 8.203125 11.56640625 C9.01882128 20.52741251 8.75308612 28.18091111 3.203125 35.56640625 C-2.46630843 40.88150009 -8.85824475 40.97508548 -16.26953125 40.90625 C-21.17616617 40.43351773 -24.3329125 39.06527013 -27.796875 35.56640625 C-33.47297619 27.95943192 -33.64108304 19.6724705 -32.796875 10.56640625 C-30.5859009 4.40136644 -26.21504014 0.51964347 -20.609375 -2.68359375 C-13.03650974 -4.70302449 -6.84141313 -3.77568555 0 0 Z " fill="#104723" transform="translate(534.796875,716.43359375)"/>
<path d="M0 0 C4.88952471 2.20028612 7.87905884 5.67680117 10.40625 10.3515625 C12.62197798 16.99874645 12.74087643 26.60485783 9.71875 33.0390625 C7.11961218 37.28800766 3.48711063 39.63098874 -0.59375 42.3515625 C-7.77670974 43.19091959 -15.45773842 43.76916314 -21.84375 39.9140625 C-27.33024032 35.38220052 -29.21897145 30.70294765 -30 23.71875 C-30.26989908 16.93078812 -30.26223841 11.39632008 -26.03125 5.8671875 C-18.88824358 -1.66402579 -9.89145598 -2.47286399 0 0 Z " fill="#114824" transform="translate(483.59375,714.6484375)"/>
<path d="M0 0 C4.29 0 8.58 0 13 0 C13.33 6.27 13.66 12.54 14 19 C15.65 18.01 17.3 17.02 19 16 C23.97509502 15.2613396 28.64128004 15.58003201 33.4375 17.0625 C36.67798387 19.51262195 38.45430539 22.29951584 40 26 C40.33071243 28.78491872 40.47377665 31.14055289 40.390625 33.90234375 C40.38496521 34.6249086 40.37930542 35.34747345 40.37347412 36.0919342 C40.35128257 38.37449586 40.30112549 40.65542198 40.25 42.9375 C40.22991244 44.49541986 40.21166564 46.0533646 40.1953125 47.61132812 C40.1514753 51.4081715 40.08257421 55.20380957 40 59 C35.71 59 31.42 59 27 59 C26.97494385 58.06615479 26.9498877 57.13230957 26.92407227 56.17016602 C26.82913072 52.71674811 26.72988742 49.2635104 26.62768555 45.81030273 C26.58428187 44.31360731 26.54261087 42.81686061 26.50268555 41.32006836 C26.44511384 39.17285688 26.38138284 37.02590479 26.31640625 34.87890625 C26.27974854 33.5854126 26.24309082 32.29191895 26.20532227 30.95922852 C26.3332722 28.11444992 26.3332722 28.11444992 25 27 C19.93478562 26.39657225 19.93478562 26.39657225 15.40649414 28.10571289 C13.33398974 30.89699247 13.5635151 33.19100822 13.48828125 36.63671875 C13.45283203 37.93544922 13.41738281 39.23417969 13.38085938 40.57226562 C13.3577595 41.94400517 13.3349771 43.3157501 13.3125 44.6875 C13.27932458 46.07099607 13.24483469 47.45446129 13.20898438 48.83789062 C13.1263727 52.22496933 13.06151428 55.61247246 13 59 C8.71 59 4.42 59 0 59 C0 39.53 0 20.06 0 0 Z " fill="#184D2B" transform="translate(370,698)"/>
<path d="M0 0 C1.09344727 -0.03673828 1.09344727 -0.03673828 2.20898438 -0.07421875 C7.3844864 -0.10216926 10.42984622 0.8322576 14.4375 4.375 C17.299802 8.99369532 17.84965604 12.86172519 17.73046875 18.1796875 C17.72622391 18.9036673 17.72197906 19.62764709 17.71760559 20.37356567 C17.70092972 22.66610287 17.66330081 24.95773246 17.625 27.25 C17.60993871 28.81248722 17.59625284 30.37498835 17.58398438 31.9375 C17.55106293 35.75034505 17.49936002 39.56251911 17.4375 43.375 C14.4675 43.375 11.4975 43.375 8.4375 43.375 C7.9425 40.9 7.9425 40.9 7.4375 38.375 C6.82003906 38.808125 6.20257812 39.24125 5.56640625 39.6875 C-0.18493163 43.46920162 -4.62376284 45.76274743 -11.5625 44.375 C-15.29948169 42.75022535 -17.41013317 40.81878693 -19.5625 37.375 C-20.81005223 33.6323433 -21.19457962 30.25567488 -20.5625 26.375 C-17.24587891 20.88184631 -13.63504146 19.05309794 -7.5625 17.375 C-6.90894531 17.18679688 -6.25539063 16.99859375 -5.58203125 16.8046875 C-3.43030672 16.34687377 -1.50917646 16.27588873 0.6875 16.3125 C2.54375 16.3434375 2.54375 16.3434375 4.4375 16.375 C3.7775 14.395 3.1175 12.415 2.4375 10.375 C0.7084226 10.34774659 -1.02078176 10.32849013 -2.75 10.3125 C-3.71292969 10.30089844 -4.67585937 10.28929687 -5.66796875 10.27734375 C-8.41826513 10.37013378 -10.88729591 10.75388315 -13.5625 11.375 C-15.125 8.5625 -15.125 8.5625 -16.5625 5.375 C-16.2325 4.385 -15.9025 3.395 -15.5625 2.375 C-10.3789775 0.381852 -5.51437851 0.00980334 0 0 Z " fill="#154B28" transform="translate(715.5625,713.625)"/>
<path d="M0 0 C4.29 0 8.58 0 13 0 C13.06058594 2.14242187 13.12117188 4.28484375 13.18359375 6.4921875 C13.24537815 8.56400095 13.30876788 10.63575947 13.37231445 12.70751953 C13.41566231 14.1488762 13.45733752 15.59028418 13.49731445 17.03173828 C13.55502088 19.10204541 13.61871371 21.17209432 13.68359375 23.2421875 C13.72025146 24.4885498 13.75690918 25.73491211 13.79467773 27.01904297 C13.80289479 29.92636942 13.80289479 29.92636942 15 32 C19.03117089 32.34617445 19.03117089 32.34617445 23 32 C25.04418684 29.73280255 25.04418684 29.73280255 26 27 C26.33 26.34 26.66 25.68 27 25 C27.15344209 23.11527141 27.24959571 21.22572126 27.31640625 19.3359375 C27.35830078 18.21445312 27.40019531 17.09296875 27.44335938 15.9375 C27.48267578 14.761875 27.52199219 13.58625 27.5625 12.375 C27.60568359 11.19164062 27.64886719 10.00828125 27.69335938 8.7890625 C27.79967338 5.85952093 27.90036217 2.92977623 28 0 C31.96 0 35.92 0 40 0 C40 14.19 40 28.38 40 43 C36.7 43 33.4 43 30 43 C29.505 40.525 29.505 40.525 29 38 C27.6078125 38.9590625 27.6078125 38.9590625 26.1875 39.9375 C20.37568687 43.69808497 14.75636678 43.63998062 8 43 C3.78718695 40.85060558 2.40262588 38.25760304 0.61972046 33.94894409 C-0.40375735 30.73023315 -0.33342245 27.67406354 -0.29296875 24.31640625 C-0.28872391 23.61603745 -0.28447906 22.91566864 -0.28010559 22.19407654 C-0.26347156 19.98314 -0.2258518 17.77315543 -0.1875 15.5625 C-0.17243326 14.05274765 -0.15874836 12.54298084 -0.14648438 11.03320312 C-0.11361921 7.35516566 -0.06194582 3.67767593 0 0 Z " fill="#164B29" transform="translate(281,714)"/>
<path d="M0 0 C0.79857422 -0.01611328 1.59714844 -0.03222656 2.41992188 -0.04882812 C7.15365511 -0.05275002 10.16490928 0.32828407 14.0625 3.3125 C12.1875 9.0625 12.1875 9.0625 11.0625 11.3125 C10.52109375 11.14878906 9.9796875 10.98507812 9.421875 10.81640625 C6.66027407 10.22659413 4.13431861 10.21640692 1.3125 10.25 C0.32765625 10.25902344 -0.6571875 10.26804687 -1.671875 10.27734375 C-2.79335938 10.29474609 -2.79335938 10.29474609 -3.9375 10.3125 C-4.2675 11.3025 -4.5975 12.2925 -4.9375 13.3125 C-2.45312563 14.32399528 0.02538072 15.29974025 2.5625 16.171875 C8.35718895 18.23623294 11.93897421 19.89838863 15.0625 25.3125 C15.90389 29.43696077 15.30490669 32.61221402 13.9375 36.5625 C11.60703067 39.98052168 9.72958668 41.36384631 6.0625 43.3125 C2.83550587 43.82710371 -0.30255865 43.78279059 -3.5625 43.6875 C-4.408125 43.68621094 -5.25375 43.68492187 -6.125 43.68359375 C-10.62165794 43.61976107 -12.75974108 43.40137946 -16.9375 41.3125 C-16.9375 38.0125 -16.9375 34.7125 -16.9375 31.3125 C-16.03 31.6425 -15.1225 31.9725 -14.1875 32.3125 C-8.87566204 33.86771854 -3.41729305 33.47446433 2.0625 33.3125 C2.09968816 30.91797741 2.09968816 30.91797741 1.0625 28.3125 C-1.26341675 26.85508413 -3.32130085 25.76154993 -5.8125 24.6875 C-13.83705953 21.08860663 -13.83705953 21.08860663 -15.9375 18.3125 C-17.17579052 14.59762845 -17.4878822 11.17271488 -16.9375 7.3125 C-12.6113175 0.20520017 -7.67885296 -0.03083877 0 0 Z " fill="#124926" transform="translate(346.9375,713.6875)"/>
<path d="M0 0 C2.97 0 5.94 0 9 0 C9 2.97 9 5.94 9 9 C12.3 9 15.6 9 19 9 C19 12.3 19 15.6 19 19 C15.7 19 12.4 19 9 19 C9.33 26.26 9.66 33.52 10 41 C13.3 41.33 16.6 41.66 20 42 C20 44.97 20 47.94 20 51 C16.56367253 52.14544249 13.74568045 52.2397802 10.125 52.3125 C8.91070313 52.34988281 7.69640625 52.38726563 6.4453125 52.42578125 C2.36915977 51.92203902 0.84397535 50.91023284 -2 48 C-4.10883936 44.67321888 -4.23510224 42.04001928 -4.1953125 38.140625 C-4.18564453 36.46806641 -4.18564453 36.46806641 -4.17578125 34.76171875 C-4.15902344 33.60285156 -4.14226563 32.44398438 -4.125 31.25 C-4.11597656 30.07566406 -4.10695313 28.90132812 -4.09765625 27.69140625 C-4.07410063 24.79406464 -4.04120652 21.89713559 -4 19 C-5.65 19 -7.3 19 -9 19 C-9.3125 16.25 -9.3125 16.25 -9 13 C-7.33784732 11.66104368 -5.67036393 10.32869858 -4 9 C-2.41805782 6.09387618 -1.18116423 3.08818357 0 0 Z " fill="#164A29" transform="translate(784,705)"/>
<path d="M0 0 C3.3 0 6.6 0 10 0 C10.66 1.98 11.32 3.96 12 6 C12.40089844 5.566875 12.80179687 5.13375 13.21484375 4.6875 C16.69600045 1.27738731 18.94615608 -0.42238618 23.9375 -0.375 C25.278125 -0.25125 26.61875 -0.1275 28 0 C28 3.63 28 7.26 28 11 C24.2890625 11.24414062 24.2890625 11.24414062 20.578125 11.48828125 C17.50268448 12.0987096 16.22227204 12.7869778 14 15 C13.35527702 17.99195597 13.35527702 17.99195597 13.390625 21.41796875 C13.35839844 22.67158203 13.32617188 23.92519531 13.29296875 25.21679688 C13.27169922 27.18229492 13.27169922 27.18229492 13.25 29.1875 C13.22184019 30.52282536 13.19191271 31.8581147 13.16015625 33.19335938 C13.08935735 36.4619088 13.04242752 39.7309592 13 43 C8.71 43 4.42 43 0 43 C0 28.81 0 14.62 0 0 Z " fill="#0D4221" transform="translate(421,714)"/>
<path d="M0 0 C3.3 0 6.6 0 10 0 C10.66 1.98 11.32 3.96 12 6 C12.78375 5.195625 13.5675 4.39125 14.375 3.5625 C17.97710487 0.04615953 17.97710487 0.04615953 21.1640625 -0.09765625 C23.44270833 -0.06510417 25.72135417 -0.03255208 28 0 C27.67 3.63 27.34 7.26 27 11 C24.78645833 11.16276042 22.57291667 11.32552083 20.359375 11.48828125 C17.43225872 12.12313594 16.13566553 12.88860339 14 15 C13.35527702 17.99195597 13.35527702 17.99195597 13.390625 21.41796875 C13.35839844 22.67158203 13.32617188 23.92519531 13.29296875 25.21679688 C13.27169922 27.18229492 13.27169922 27.18229492 13.25 29.1875 C13.22184019 30.52282536 13.19191271 31.8581147 13.16015625 33.19335938 C13.08935735 36.4619088 13.04242752 39.7309592 13 43 C8.71 43 4.42 43 0 43 C0 28.81 0 14.62 0 0 Z " fill="#154B29" transform="translate(744,714)"/>
<path d="M0 0 C3.625 0.375 3.625 0.375 6 2.1875 C9.41045549 6.77849778 9.11152834 11.88661894 8.625 17.375 C7.08271534 21.48775909 6.28828593 22.93280938 2.625 25.375 C-3.59722222 25.15277778 -3.59722222 25.15277778 -6.25 22.5 C-8.8534563 17.58236032 -8.87945349 12.81961865 -8.375 7.375 C-6.39821642 3.06201765 -4.87505032 0.54167226 0 0 Z " fill="#EAEEEB" transform="translate(522.375,722.625)"/>
<path d="M0 0 C3.5 0.5625 3.5 0.5625 5.875 2.3125 C9.13060941 6.82026687 9.03177354 12.1794591 8.5 17.5625 C6.94728802 21.62912662 6.13720598 23.13769602 2.5 25.5625 C-1 25.5 -1 25.5 -4.5 24.5625 C-7.60210402 20.6723326 -7.93222706 17.45578673 -7.9375 12.5625 C-7.95683594 11.36625 -7.97617187 10.17 -7.99609375 8.9375 C-7.21571329 3.62845499 -5.37681105 0.86413035 0 0 Z " fill="#F2F5F3" transform="translate(474.5,722.4375)"/>
<path d="M0 0 C4.95 0 9.9 0 15 0 C14.45730469 1.11117188 13.91460937 2.22234375 13.35546875 3.3671875 C6.98971672 16.53147376 3.56888689 27.28740811 3 42 C2.01 41.67 1.02 41.34 0 41 C0 27.47 0 13.94 0 0 Z " fill="#F1F3F2" transform="translate(455,355)"/>
<path d="M0 0 C0.33 0 0.66 0 1 0 C1.13301033 7.39121522 1.26351549 14.78247149 1.39115143 22.17378139 C1.45054309 25.6089584 1.51067639 29.04411845 1.57275391 32.47924805 C1.88730315 49.98808612 2.07744943 67.48823675 2 85 C3.98 83.35 5.96 81.7 8 80 C8.66 80.33 9.32 80.66 10 81 C8.52386015 82.50297876 7.04400843 84.00231285 5.5625 85.5 C4.73878906 86.3353125 3.91507813 87.170625 3.06640625 88.03125 C1 90 1 90 0 90 C0 60.3 0 30.6 0 0 Z " fill="#A5D157" transform="translate(539,539)"/>
<path d="M0 0 C0.35820896 7.28358209 0.35820896 7.28358209 -1 10 C-4.36955699 11.68477849 -7.2640113 11.29650704 -11 11 C-11.66 10.34 -12.32 9.68 -13 9 C-12.9375 6.0625 -12.9375 6.0625 -12 3 C-8.21612143 -0.33871638 -4.90094703 -0.288291 0 0 Z " fill="#ECEFEC" transform="translate(720,737)"/>
<path d="M0 0 C3.3 0 6.6 0 10 0 C9.67 0.66 9.34 1.32 9 2 C6.36 1.67 3.72 1.34 1 1 C1.33 14.2 1.66 27.4 2 41 C4.97 41 7.94 41 11 41 C11.33 33.08 11.66 25.16 12 17 C12.33 17 12.66 17 13 17 C13 25.58 13 34.16 13 43 C8.71 43 4.42 43 0 43 C0 28.81 0 14.62 0 0 Z " fill="#557A5F" transform="translate(421,714)"/>
<path d="M0 0 C0.70125 0.44730469 1.4025 0.89460937 2.125 1.35546875 C7.73407926 4.92973257 13.3539018 8.4845049 19 12 C18.67 11.01 18.34 10.02 18 9 C18.33 8.34 18.66 7.68 19 7 C22.3 10.63 25.6 14.26 29 18 C28.67 18.66 28.34 19.32 28 20 C6.40948558 7.64809961 6.40948558 7.64809961 0 2 C0 1.34 0 0.68 0 0 Z " fill="#B0D834" transform="translate(499,625)"/>
<path d="M0 0 C0.33 0 0.66 0 1 0 C1 6.93 1 13.86 1 21 C0.01 21.33 -0.98 21.66 -2 22 C-3.71565615 18.56868771 -2.89996128 14.76027362 -2.6875 11 C-2.63432617 9.75089844 -2.63432617 9.75089844 -2.58007812 8.4765625 C-2.53689453 7.67992187 -2.49371094 6.88328125 -2.44921875 6.0625 C-2.39254028 4.96615234 -2.39254028 4.96615234 -2.3347168 3.84765625 C-2 2 -2 2 0 0 Z " fill="#F4F5F4" transform="translate(796,725)"/>
<path d="M0 0 C1.87603978 2.81405967 2.49092802 4.40924666 3.1875 7.625 C3.36667969 8.42164063 3.54585937 9.21828125 3.73046875 10.0390625 C3.81941406 10.68617188 3.90835938 11.33328125 4 12 C3.67 12.33 3.34 12.66 3 13 C2.84126045 15.21687994 2.74866163 17.43855298 2.68359375 19.66015625 C2.66281265 20.32462265 2.64203156 20.98908905 2.62062073 21.6736908 C2.55506342 23.80318543 2.49621215 25.93280668 2.4375 28.0625 C2.39432061 29.50326847 2.35070651 30.94402399 2.30664062 32.38476562 C2.19937607 35.9230404 2.09812629 39.46145869 2 43 C1.67 43 1.34 43 1 43 C0.67 28.81 0.34 14.62 0 0 Z " fill="#BECCC1" transform="translate(639,714)"/>
<path d="M0 0 C0.33 0 0.66 0 1 0 C0.67 13.86 0.34 27.72 0 42 C-0.33 42 -0.66 42 -1 42 C-1 32.1 -1 22.2 -1 12 C-1.99 12.33 -2.98 12.66 -4 13 C-3.52343588 11.20763933 -3.04366502 9.41613103 -2.5625 7.625 C-2.29566406 6.62726562 -2.02882813 5.62953125 -1.75390625 4.6015625 C-1 2 -1 2 0 0 Z " fill="#D4DBD4" transform="translate(674,715)"/>
<path d="M0 0 C0.99 0.33 1.98 0.66 3 1 C3 7.6 3 14.2 3 21 C2.34 21.33 1.68 21.66 1 22 C0.67 14.74 0.34 7.48 0 0 Z " fill="#EEF0EE" transform="translate(565,728)"/>
<path d="M0 0 C0.66 0.33 1.32 0.66 2 1 C0.13128235 2.92314631 -1.74452468 4.8384057 -3.625 6.75 C-4.14707031 7.28882813 -4.66914062 7.82765625 -5.20703125 8.3828125 C-8.57102984 11.78834194 -11.92722989 14.48050858 -16 17 C-13.02550302 10.00118357 -5.98898148 4.44343788 0 0 Z " fill="#318844" transform="translate(546,482)"/>
<path d="M0 0 C0.33 0 0.66 0 1 0 C1 10.56 1 21.12 1 32 C0.67 32 0.34 32 0 32 C-0.33 30.35 -0.66 28.7 -1 27 C-1.33 27 -1.66 27 -2 27 C-2 25.35 -2 23.7 -2 22 C-1.34 22 -0.68 22 0 22 C0 14.74 0 7.48 0 0 Z " fill="#EEEEEC" transform="translate(628,702)"/>
<path d="M0 0 C1 2 1 2 0.1796875 4.53125 C-0.25085938 5.5109375 -0.68140625 6.490625 -1.125 7.5 C-1.54007813 8.4796875 -1.95515625 9.459375 -2.3828125 10.46875 C-4.28520943 13.44641475 -5.65659748 14.05439121 -9 15 C-7.38325319 11.57053707 -5.42402323 8.43736948 -3.375 5.25 C-2.74335938 4.26515625 -2.11171875 3.2803125 -1.4609375 2.265625 C-0.97882812 1.51796875 -0.49671875 0.7703125 0 0 Z " fill="#E0E6E4" transform="translate(514,353)"/>
<path d="M0 0 C2.35119399 3.52679099 2.21443452 5.02879485 2.125 9.1875 C2.10695313 10.27417969 2.08890625 11.36085938 2.0703125 12.48046875 C2.03550781 13.72763672 2.03550781 13.72763672 2 15 C1.01 14.67 0.02 14.34 -1 14 C-1.02694851 12.04174127 -1.04637218 10.08337774 -1.0625 8.125 C-1.07410156 7.03445313 -1.08570313 5.94390625 -1.09765625 4.8203125 C-1 2 -1 2 0 0 Z " fill="#DEE5E1" transform="translate(456,382)"/>
<path d="M0 0 C3.875 3.75 3.875 3.75 5 6 C5.66 5.34 6.32 4.68 7 4 C7 6.31 7 8.62 7 11 C6.34 11 5.68 11 5 11 C4.16151196 9.54462432 3.32936066 8.08559627 2.5 6.625 C1.80390625 5.40683594 1.80390625 5.40683594 1.09375 4.1640625 C0 2 0 2 0 0 Z " fill="#A1D05A" transform="translate(506,585)"/>
<path d="M0 0 C2.56616632 3.84924948 2.55097676 6.4349304 3 11 C2.01 11.495 2.01 11.495 1 12 C0.03929566 9.11788698 -0.10581883 7.30149956 -0.0625 4.3125 C-0.05347656 3.50425781 -0.04445313 2.69601562 -0.03515625 1.86328125 C-0.02355469 1.24839844 -0.01195312 0.63351562 0 0 Z " fill="#B7C6B7" transform="translate(639,714)"/>
<path d="M0 0 C-1.20381448 2.49361571 -2.45428722 4.68143083 -4 7 C-4.39013716 8.9896995 -4.73202649 10.99019869 -5 13 C-5.33 13 -5.66 13 -6 13 C-6.48929664 5.78287462 -6.48929664 5.78287462 -4.125 2 C-2 0 -2 0 0 0 Z " fill="#2F5D3F" transform="translate(336,716)"/>
<path d="M0 0 C2.97 0 5.94 0 9 0 C9 2.97 9 5.94 9 9 C8.67 9 8.34 9 8 9 C8 6.36 8 3.72 8 1 C3.39257135 2.21044132 3.39257135 2.21044132 -1 4 C-0.67 2.68 -0.34 1.36 0 0 Z " fill="#557B64" transform="translate(784,705)"/>
<path d="M0 0 C2.75 -0.25 2.75 -0.25 6 0 C8.375 2 8.375 2 10 4 C9.67 4.66 9.34 5.32 9 6 C6.03 4.35 3.06 2.7 0 1 C0 0.67 0 0.34 0 0 Z " fill="#BDE24C" transform="translate(518,639)"/>
<path d="M0 0 C0.33 0 0.66 0 1 0 C1 2.64 1 5.28 1 8 C0.34 8 -0.32 8 -1 8 C-1 8.66 -1 9.32 -1 10 C-1.66 10 -2.32 10 -3 10 C-2.01 6.7 -1.02 3.4 0 0 Z " fill="#C9D4CA" transform="translate(257,716)"/>
<path d="M0 0 C0.66 0.33 1.32 0.66 2 1 C0.88121617 2.17262904 -0.24523051 3.33795138 -1.375 4.5 C-2.00148438 5.1496875 -2.62796875 5.799375 -3.2734375 6.46875 C-5 8 -5 8 -7 8 C-5.61918777 3.8575633 -3.40174442 2.67796901 0 0 Z " fill="#BBE046" transform="translate(547,619)"/>
</svg>
